<svg id="stamp" width="384" height="523" viewBox="0 0 384 523" fill="transparent" xmlns="http://www.w3.org/2000/svg">
<mask id="path-1-inside-1_1_79" fill="white">
<rect x="57" y="56" width="277" height="412" rx="4"/>
</mask>
<rect x="57" y="56" width="277" height="412" rx="4" stroke="black" fill="transparent" stroke-width="12" mask="url(#path-1-inside-1_1_79)"/>
<path d="M21.3111 57.8997C21.3111 57.8532 21.9237 57.0323 22.866 54.9816C25.3091 49.6646 19.5008 42.8639 13.4996 35.5672C10.0994 31.433 9.60484 28.1981 9.60996 23.7038C9.61263 21.3603 10.6499 19.5091 11.5491 18.117C13.5071 15.0858 20.321 13.5073 26.1295 12.505C33.6411 11.2088 37.9752 14.6948 42.1652 17.6523C49.5754 22.8829 57.1982 23.443 62.3705 23.1587C66.328 22.9412 69.6012 17.2691 72.6445 14.0099C73.8756 12.6915 76.0183 12.461 77.9919 12.0966C82.0316 11.3507 86.6763 16.3781 89.6718 19.6521C90.7953 20.88 92.2733 21.6259 93.9074 21.9815C95.847 22.4036 97.9428 21.7821 99.5916 21.009C102.653 19.5737 105.942 13.3282 109.502 8.96434C110.937 7.20606 112.645 6.02943 115.195 5.28836C119.619 4.00285 123.442 5.30651 124.965 6.20239C130.13 9.24037 133.241 17.3811 134.949 19.4754C135.793 20.5104 138.4 20.1513 141.087 20.0044C145.889 19.7418 151.565 12.1412 154.889 9.17538C156.038 8.15022 158.885 8.43915 162.004 8.52917C167.622 8.69134 172.014 16.0639 174.894 18.7513C175.964 19.7494 177.818 19.5201 179.516 19.4077C183.153 19.1671 190.084 11.8643 195.85 7.89096C197.572 6.70467 199.534 6.82945 201.353 7.05083C206.821 7.71611 211.871 14.6055 217.59 18.869C220.683 21.1748 226.135 15.5306 229.877 13.1818C231.101 12.4133 233.389 12.5701 236.055 12.6483C240.016 12.7644 243.314 18.4044 246.652 22.2242C248.769 24.6468 254.907 24.3368 259.042 23.8639C262.487 23.47 263.276 18.6341 268.877 9.36948C271.782 4.56352 278.079 3.32519 282.43 3.4299C286.176 3.52008 289.791 8.3717 294.075 13.5387C295.948 15.7983 297.987 16.8436 300.133 17.2876C303.06 17.8933 305.587 17.0424 307.151 16.0224C311.392 13.2564 313.654 10.3799 317.806 9.89474C321.121 9.50743 327.59 16.3405 332.271 20.0054C333.897 21.2781 336.308 20.8886 338.972 20.2819C348.641 18.08 353.739 11.3104 358.193 9.98426C363.035 8.54262 367.104 10.0541 370.068 12.2176C373.461 14.694 375.388 17.5721 376.136 18.8389C378.143 22.2372 376.289 27.228 373.583 32.0878C367.735 42.5891 362.818 45.4942 361.214 49.5263C357.64 58.5082 363.91 63.1179 368.31 68.0315C372.716 72.9512 376.656 75.344 376.489 76.7902C376.08 80.3312 371.61 83.5738 366.879 89.5159C363.634 93.5897 363.687 99.8672 364.956 105.075C366.296 110.569 374.106 112.537 375.054 115.767C375.697 117.959 375.046 120.058 374.657 121.606C373.372 126.723 363.284 133.275 359.684 137.242C355.448 141.91 362.312 157.308 365.834 162.881C367.559 165.611 365.919 168.944 363.647 172.96C362.682 174.665 362.225 176.319 362.015 177.986C361.81 179.608 362.486 181.227 363.773 182.652C367.555 186.842 375.558 188.575 377.858 191.42C381.858 196.37 379.269 202.995 377.56 206.348C374.438 212.473 364 218.175 361.249 223.173C356.659 231.509 359.276 239.308 362.055 243.899C367.823 253.433 370.703 256.244 370.9 259.918C371.17 264.947 365.131 270.206 365.33 273.176C365.636 277.74 373.992 278.752 374.835 279.825C375.652 280.865 375.603 283.591 375.356 286.876C374.977 291.934 368.921 294.421 364.75 302.469C363.802 304.298 363.668 305.3 364.048 306.329C367.004 314.318 377.71 319.829 379.762 323.891C381.214 326.766 381.375 330.725 381.194 334.475C380.762 343.45 368.982 350.48 363.059 354.513C359.671 356.82 358.887 360.037 358.593 361.708C358.204 363.918 358.884 366.501 359.728 368.672C361.011 371.975 366.293 373.467 368.75 375.708C370.156 376.989 369.308 380.201 368.998 382.966C368.187 390.195 356.857 395.731 355.843 399.683C354.851 403.546 356.525 407.223 358.596 409.496C363.054 414.391 367.298 416.602 369.454 420.343C371.797 424.41 372.021 429.78 372.065 433.564C372.123 438.474 367.187 443.92 366.001 447.699C365.438 449.492 366.369 451.238 367.152 452.557C370.351 457.948 378.07 460.585 378.407 462.161C378.805 464.021 378.283 465.891 377.691 467.399C376.437 470.594 366.658 473.862 360.636 477.883C358.814 479.099 359.061 482.091 359.044 484.392C359.009 489.23 366.992 492.341 369.023 495.688C371.61 499.951 369.553 506.53 367.36 510.086C365.615 512.916 362.286 514.735 358.656 516.558C354.243 518.774 342.568 518.601 335.291 517.579C330.002 516.835 326.616 509.345 322.956 506.417C321.245 505.048 318.702 504.125 314.843 504.507C306.085 505.373 304.039 509.132 301.297 510.857C296.979 513.576 287.682 506.17 280.646 503.462C279.62 503.067 278.68 503.275 277.883 503.588C273.262 505.404 270.28 511.398 267.951 512.586C266.812 513.166 265.434 512.894 264.235 512.647C261.925 512.17 257.993 508.208 252.618 503.136C249.102 499.818 244.888 501.484 241.839 502.358C232.476 505.042 226.271 512.18 220.654 518.155C219.501 519.382 218.197 519.944 217.175 520.229C212.639 521.491 208.877 513.223 202.987 508.208C201.646 507.066 200.756 506.997 199.899 507.153C194.872 508.065 191.272 514.457 189.285 518.657C188.831 519.617 188 520.066 186.952 519.915C180.929 519.043 176.583 512.573 174.145 509.527C171.477 506.193 168.76 503.634 164.136 501.749C159.466 499.844 155.083 500.732 151.414 502.195C144.757 504.851 136.959 512.62 131.563 513.608C126.575 514.522 121.305 510.033 116.621 510.982C112.392 511.839 110.056 518.432 107.196 519.074C105.141 519.536 102.723 518.128 100.554 516.544C96.5531 513.623 97.185 508.25 95.1444 504.059C92.5572 498.747 77.8692 497.866 70.0014 496.895C66.4059 496.451 63.1386 500.831 60.8245 503.727C58.1603 507.061 58.0598 512.221 56.9551 513.294C54.4501 515.727 50.1914 515.219 47.2944 515.004C44.5903 514.803 42.9339 510.552 39.3605 509.09C36.7277 508.013 34.0001 509.022 32.3041 509.855C28.5766 511.685 26.639 515.295 23.2882 515.917C21.1232 516.318 18.8169 515.487 16.9194 514.829C15.3052 514.269 13.6955 512.506 11.9331 510.377C8.54761 506.288 10.8276 499.619 12.3379 496.125C13.8814 492.555 20.171 489.674 24.1453 486.004C28.4422 482.036 28.9595 475.352 29.633 466.473C29.8311 463.862 29.3305 462.411 28.5482 460.935C24.6139 453.508 12.7613 449.092 11.6347 445.794C10.9968 443.927 12.2274 442.091 13.1463 440.731C15.8539 436.725 22.7637 434.722 25.0365 432.397C26.044 431.366 26.4559 429.442 26.7422 427.197C27.2598 423.138 18.5317 416.424 14.0571 411.597C11.1694 408.482 14.461 402.562 17.0616 398.352C20.9979 391.979 24.5308 390.593 25.098 387.314C25.9359 382.468 22.0816 376.233 18.9674 371.287C16.4393 367.271 13.5411 364.663 13.0546 362.727C12.4696 360.4 13.1147 358.12 13.8779 356.491C16.2595 351.411 23.9541 348.772 25.3751 346.81C27.9526 343.249 24.2857 338.805 21.477 334.996C16.5233 328.279 13.3306 324.923 12.758 319.383C12.5598 317.465 13.3634 315.594 14.5658 313.554C18.328 307.172 27.2086 302.868 29.1354 299.237C30.3088 297.026 29.4943 294.317 28.0645 291.805C23.843 284.391 17.0691 282.388 15.4504 277.966C13.7455 273.31 19.0468 267.843 25.722 259.826C28.5572 256.421 28.4036 251.412 27.7278 247.097C26.8693 241.616 17.2637 240.046 14.178 237.871C12.5386 236.715 12.4463 234.428 12.5392 232.708C12.7972 227.933 20.1013 223.46 21.2562 220.052C21.5309 219.242 21.3515 218.189 20.7796 217.306C17.9404 212.922 7.88311 207.621 3.54698 201.953C1.79092 199.658 3.90045 196.281 5.32151 193.784C9.95843 185.636 20.6104 179.176 23.4371 173.545C25.9449 168.549 24.9221 163.317 24.6394 161.029C24.1366 156.961 18.2228 153.133 14.6965 149.455C13.5115 148.219 14.0054 145.947 14.4946 143.821C16.1316 136.709 25.1864 132.966 25.6616 131.418C27.0642 126.852 22.8097 122.127 20.3423 118.98C18.6578 116.831 16.5087 115.723 15.5707 114.488C14.6203 113.237 14.5505 110.348 14.648 106.842C14.7847 101.927 21.6304 98.7073 25.8326 95.2715C27.4614 93.9397 27.7964 91.3391 27.8987 88.8095C27.9832 86.7202 27.0284 85.0417 25.9789 83.6494C22.3671 78.8581 11.9198 73.188 10.5908 68.1438C10.1427 66.4431 12.0127 64.8912 13.1448 63.5288C15.721 61.823 18.5177 61.2687 20.343 60.7058C21.0306 60.2937 21.2333 59.6251 21.4422 58.5306" stroke="black" stroke-width="5" stroke-linecap="round"/>
<path d="M60.8892 392.806C61.0499 392.806 62.3079 393.481 65.3635 395.522C70.0087 398.625 76.2994 403.264 83.4167 407.15C88.9435 410.167 93.6123 411.093 98.0766 411.549C103.725 412.126 107.81 411.362 109.43 410.654C111.001 409.968 112.751 408.394 115.947 404.572C121.864 397.495 124.767 390.812 127.829 390.636C136.049 390.163 142.735 399.008 151.349 400.316C164.258 402.277 173.011 400.981 175.174 400.544C181.869 399.193 186.929 395.211 190.796 391.619C193.627 388.989 195.752 383.932 197.93 377.514C200.601 369.641 199.562 361.375 198.345 355.924C196.806 349.033 189.184 343.442 180.104 339.784C177.003 338.99 173.592 338.639 171.202 338.458C168.813 338.276 167.55 338.276 165.064 338.6" stroke="black" stroke-width="5" stroke-linecap="round"/>
<path d="M61.2429 320.683C61.9552 320.618 65.3727 319.855 76.4187 319.22C80.3946 319.494 84.2445 320.749 88.6576 322.858C90.6562 323.963 92.1656 325.136 94.1219 326.922" stroke="black" stroke-width="5" stroke-linecap="round"/>
<path d="M109.87 340.268C110.369 339.797 112.365 338.452 115.942 337.895C119.139 337.396 122.04 339.226 124.546 341.292C125.775 342.306 126.194 343.865 126.49 345.15C127.141 347.979 123.871 352.801 121.611 355.776C119.607 358.414 111.578 358.635 105.542 358.839C102.15 358.953 98.5742 357.162 95.8233 355.508C93.1212 353.882 91.865 349.547 90.7463 344.539C89.4179 338.591 92.063 335.274 93.5157 332.841C95.1803 330.053 96.4144 327.972 98.2155 325.57C101.266 321.502 107.478 318.827 121.627 315.446C135.041 312.24 139.978 314.008 146.97 316.414C156.034 319.534 160.071 326.234 161.174 329.005C162.831 333.171 162.476 336.094 162.266 344.094C162.112 349.95 158.874 351.901 156.681 353.338C153.838 355.199 147.626 354.429 143.268 353.358C142.123 353.077 142.137 350.022 142.217 346.671C143.214 343.478 144.888 341.556 145.885 340.983C146.416 340.742 146.997 340.603 147.596 340.461" stroke="black" stroke-width="5" stroke-linecap="round"/>
<path d="M290.305 184.781C290.577 183.901 292.209 181.074 294.772 179.441C296.555 178.306 299.043 178.86 300.927 179.214C302.893 179.584 304.367 182.026 305.855 183.889C306.832 185.114 306.908 187.629 306.812 190.695C306.757 192.43 305.916 193.476 304.673 194.858C302.798 196.942 300.865 198.133 298.543 198.488C289.812 199.822 282.897 195.972 278.601 192.961C275.458 190.757 274.149 185.365 272.629 182.249C271.875 180.702 272.04 178.08 272.242 175.25C272.601 170.226 279.17 167.188 285.638 163.99C287.88 162.882 291.921 161.262 299.228 159.568C307.583 157.632 315.228 159.775 320.559 161.639C323.152 162.732 325.517 164.126 327.3 165.307C329.083 166.487 330.213 167.412 331.376 168.365" stroke="black" stroke-width="5" stroke-linecap="round"/>
<path d="M275.291 171.825C274.532 171.596 268.163 167.771 262.521 164.762C258.423 162.577 251.43 163.205 240.408 165.586C236.119 166.512 233.379 169.482 230.61 172.601C225.819 177.998 225.321 182.989 224.107 186.706C223.166 189.586 218.762 180.184 216.526 178.293C212.955 175.274 206.945 174.239 197.77 175.107C188.907 175.945 183.285 179.97 181.01 181.366C177.997 183.217 174.646 186.883 170.807 191.235C164.009 198.941 160.28 201.593 153.09 206.252C150.364 208.019 148.083 209.248 143.196 210.347C134.828 212.864 127.03 215.013 117.348 215.969C110.268 216.436 98.7882 216.866 86.0956 217.043" stroke="black" stroke-width="5" stroke-linecap="round"/>
<path d="M89.3353 216.603C89.3765 216.603 95.5918 216.628 106.39 216.996C111.005 217.153 113.822 218.001 118.601 218.856C123.38 219.712 130.025 220.74 137.644 221.411C145.264 222.083 153.657 222.366 158.273 222.487C163.471 222.623 168.93 220.893 176.986 218.364C181.491 216.95 184.599 217.133 187.397 217.341C189.494 217.496 193.242 220.101 199.353 224.445C206.171 229.293 209.622 233.165 211.507 233.848C214.84 235.057 219.553 236.518 224.854 238.304C234.927 241.698 240.842 239.691 244.651 237.868C252.006 234.346 254.075 227.36 255.263 221.967C256.974 214.193 254.661 211.481 252.703 208.751C249.816 204.724 243.975 202.741 235.926 201.333C234.081 201.011 233.246 201.09 232.037 201.84C228.996 203.729 227.318 206.282 226.77 207.755C226.106 209.541 226.307 211.972 226.663 214.588C227.424 220.173 231.902 222.05 235.339 223.456C236.687 224.009 238.116 223.93 239.52 223.774C240.671 223.646 241.432 222.613 242.003 221.561C242.215 220.988 242.271 220.335 242.339 219.696C242.407 219.056 242.487 218.449 242.569 217.675" stroke="black" stroke-width="5" stroke-linecap="round"/>
<path d="M248.179 236.718C248.437 236.822 252.479 239.549 259.393 243.996C264.114 247.031 268.724 247.755 273.115 248.316C281.905 249.44 290.614 244.319 293.575 242.301C296.919 240.02 300.347 234.823 304.031 229.197C304.632 228.28 304.755 227.692 305.167 227.485C308.723 225.696 313.899 233.865 316.076 235.461C317.248 236.104 321.016 237.478 326.035 239.161C327.928 239.784 328.493 239.939 330.138 240.234" stroke="black" stroke-width="5" stroke-linecap="round"/>
<path d="M79.5475 79.2195C84.1915 78.0117 89.788 75.1598 94.412 73.9293C100.002 72.4417 113.34 75.1667 119.047 77.1457C120.383 77.6088 127.106 80.0197 136.937 83.7736C137.831 84.1148 138.722 84.4042 139.603 84.6481C140.351 84.7135 141.118 84.7619 141.91 84.7901C150.253 85.0874 157.55 84.3131 156.73 84.6705C155.643 85.1444 148.049 86.9851 139.603 84.6481C134.188 84.1746 129.785 82.8099 124.514 81.7661C120.631 80.997 114.977 80.2429 109.577 79.8197C99.2084 79.0072 91.8896 79.7955 88.019 80.5569C81.4607 81.847 75.9276 85.9159 72.0313 87.4832C69.2621 88.5971 65.568 88.7739 62.5296 88.7336C61.381 88.7184 61.0955 88.0006 61.0582 87.0485C60.9678 84.7425 61.691 82.834 62.3803 81.9775C64.0583 79.8925 67.4158 80.9203 70.0295 81.7272C72.3844 80.7317 74.2768 80.1405 75.8816 79.7758C77.2845 79.4569 78.4676 79.3111 79.5475 79.2195Z" fill="black"/>
<path d="M61.1541 78.6315C62.6201 78.7813 67.4789 79.4641 75.5144 79.7697C80.5813 79.9625 88.3361 75.5462 94.412 73.9293C100.002 72.4417 113.34 75.1667 119.047 77.1457C120.383 77.6088 127.106 80.0197 136.937 83.7736C146.394 87.3842 155.529 85.1939 156.73 84.6705C157.55 84.3131 150.253 85.0874 141.91 84.7901C135.388 84.5577 130.513 82.954 124.514 81.7661C120.63 80.997 114.977 80.2429 109.577 79.8197C99.2084 79.0072 91.8896 79.7955 88.019 80.5569C81.4607 81.847 75.9276 85.9159 72.0313 87.4832C69.2621 88.5971 65.568 88.7739 62.5296 88.7336C61.381 88.7184 61.0955 88.0006 61.0582 87.0485C60.9678 84.7425 61.691 82.834 62.3803 81.9775C64.5146 79.3256 69.3658 81.7094 71.948 82.2694C72.7029 82.4331 73.6146 82.353 73.6397 82.3977C74.0618 83.1483 69.9473 83.2472 66.5503 84.201C65.1114 84.6051 64.1755 84.5488 65.5349 83.8487C74.8654 79.0433 78.526 79.3399 82.1211 79.0327C86.0501 78.6969 89.1648 75.7817 93.2005 75.2135C98.8851 75.1997 104.751 75.5234 109.088 76.3737C111.247 76.9279 113.322 77.7311 115.46 78.5587" stroke="black" stroke-width="5" stroke-linecap="round"/>
<path d="M61.2455 104.737C64.0183 104.772 70.7711 104.983 81.3446 103.963C91.7691 102.957 97.7144 98.3332 99.9033 98.1759C110.205 97.436 118.256 102.901 122.873 103.863C125.164 104.057 128.916 104.218 131.44 104.22C133.964 104.222 135.146 104.061 136.363 103.894" stroke="black" stroke-width="5" stroke-linecap="round"/>
<path d="M61.7259 263.812C63.387 264.94 67.8349 267.842 70.2814 268.452C72.5228 269.011 74.8017 268.785 78.0833 267.802C82.8466 266.375 85.7264 261.599 88.5448 258.99C91.857 255.922 97.0297 256.419 102.158 257.418C109.747 258.897 115.846 264.067 122.789 263.915C133.134 263.69 140.905 258.689 144.415 257.283C148.898 255.487 156.216 255.16 163.454 255.092C169.792 255.033 178.238 259.532 185.955 265.288C187.706 266.594 188.423 267.915 189.317 269.351C192.177 273.945 190.611 282.372 188.71 286.134C187.239 289.047 181.63 291.748 175.429 294C173.705 294.626 170.554 294.561 164.895 293.83C157.281 292.846 150.958 289.817 145.714 289.32C134.207 288.231 129.104 291.237 126.602 292.795C124.269 294.923 122.176 297.131 121.036 298.638C120.562 299.305 120.297 299.774 119.907 300.397" stroke="black" stroke-width="5" stroke-linecap="round"/>
<path d="M90.3095 262.353C89.9263 263.012 89.5968 263.718 89.2814 264.443C91.9602 265.033 97.231 265.153 104.229 265.49C121.97 266.345 127.614 267.196 128.669 268.291C130.37 270.057 129.16 270.59 126.619 270.47C128.635 270.843 130.13 271.067 130.626 271.021C134.337 270.676 137.845 266.978 144.106 263.177C137.554 265.037 130.19 267.355 132.753 266.133C137.258 263.986 155.759 257.762 154.359 258.449C153.876 258.686 152.337 259.011 149.955 260.086C147.757 261.079 145.827 262.132 144.106 263.177C137.845 266.978 134.337 270.676 130.626 271.021C130.13 271.067 128.635 270.843 126.619 270.47C121.432 270.226 110.695 267.266 107.835 266.538C102.704 265.232 118.689 269.003 126.619 270.47C129.16 270.59 130.37 270.057 128.669 268.291C127.614 267.196 121.97 266.345 104.229 265.49C97.231 265.153 91.9602 265.033 89.2814 264.443C88.2781 264.223 87.6384 263.936 87.4076 263.546C87.1465 263.106 87.7601 262.523 88.5811 262.274C88.7867 262.212 89.4012 262.248 90.3095 262.353C90.3704 262.248 90.4327 262.145 90.4965 262.042C91.811 259.934 95.8488 260.123 104.352 260.106C108.617 260.097 110.855 262.34 112.583 263.442C118.818 267.418 96.879 263.11 90.3095 262.353Z" fill="black"/>
<path d="M149.289 289.795C155.394 289.792 169.098 289.502 172.722 288.024C175.662 286.826 178.455 283.627 180.752 280.614C182.121 278.819 182.14 276.964 182.103 275.197C182.041 272.199 178.64 269.824 173.881 267.164C169.583 264.762 160.545 264.609 151.91 266.204C147.141 267.085 139.691 272.11 133.384 273.484C127.219 274.826 121.132 273.264 116.433 272.091C104.063 269.004 97.8632 267.77 93.3335 268.83C88.5303 269.955 85.6063 274.564 82.1001 276.921C75.1115 281.621 66.0479 280.042 61.4927 279.005C60.2656 278.726 61.6618 274.628 63.2086 270.935C64.0333 268.966 68.5999 270.428 72.288 271.355C73.4647 271.65 73.04 272.186 72.4051 272.498C70.9623 273.206 69.2056 273.314 67.8641 273.597C66.7838 273.825 66.1216 275.135 65.8017 275.775C64.4482 278.48 72.6432 275.096 74.9142 273.772C78.4807 271.693 82.529 268.046 84.4507 266.974C84.7742 266.793 84.9157 267.792 84.673 268.522C83.4334 272.25 79.3004 274.119 76.2659 275.096C75.4384 275.363 74.6022 275.64 74.5259 275.799C73.2348 278.493 82.2228 273.877 85.0854 271.44C88.0993 268.874 88.687 264.945 90.4965 262.042C91.811 259.934 95.8488 260.123 104.352 260.106C108.617 260.097 110.855 262.34 112.583 263.442C119.68 267.968 90.2738 261.76 88.5811 262.274C87.7601 262.523 87.1465 263.106 87.4076 263.546C88.2547 264.975 94.6102 265.026 104.229 265.49C121.97 266.345 127.614 267.196 128.669 268.291C133.842 273.663 112.097 267.623 107.835 266.538C101.4 264.9 128.177 271.249 130.626 271.021C135.358 270.581 139.759 264.691 149.955 260.086C152.337 259.011 153.876 258.686 154.359 258.449C155.759 257.762 137.259 263.986 132.753 266.133C129.198 267.827 144.737 262.714 150.724 261.455C156.711 260.197 160.242 260.097 162.328 260.07C164.414 260.043 164.948 260.091 165.498 260.324" stroke="black" stroke-width="5" stroke-linecap="round"/>
<path d="M126.651 268.218C130.416 268.075 140.42 267.591 148.73 265.148C153.847 263.644 159.304 259.127 164.101 258.36C171.561 258.549 175.208 259.448 178.983 261.481C180.663 262.676 183.388 264.775 186.195 266.938" stroke="black" stroke-width="5" stroke-linecap="round"/>
<path d="M185.3 281.159C185.322 281.01 185.342 280.858 185.359 280.703C181.769 283.972 169.034 291.517 171.406 290.296C172.489 289.739 174.667 289.926 178.077 288.269C180.869 286.912 184.769 284.792 185.3 281.159Z" fill="black"/>
<path d="M151.686 263.681C157.103 263.729 169.657 264.292 173.231 265.616C177.672 267.262 181.088 268.376 182.154 269.791C185.368 274.06 185.734 278.188 185.3 281.159C184.769 284.792 180.869 286.912 178.077 288.269C174.667 289.926 172.489 289.739 171.406 290.296C168.829 291.622 184.077 282.606 186.068 279.962C189.716 275.118 186.512 268.891 185.034 265.882C180.577 262.969 173.374 259.754 170.556 259.635C168.278 259.598 164.276 259.61 159.763 259.691" stroke="black" stroke-width="5" stroke-linecap="round"/>
<path d="M151.859 261.068C156.071 261.413 162.416 260.141 166.018 260.547C164.613 260.031 163.138 259.587 161.265 259.4C155.749 259.349 151.865 259.797 150.9 260.314C150.74 260.583 151.184 261.012 151.859 261.068Z" fill="black"/>
<path d="M165.379 260.169C168.22 260.169 175.656 260.519 179.212 261.605C182.347 262.562 183.276 265.75 183.4 266.867C183.954 271.84 170.466 262.071 167.536 260.892C164.536 259.685 156.755 261.47 151.859 261.068C151.184 261.012 150.74 260.583 150.9 260.314C151.865 259.797 155.749 259.349 161.265 259.4C163.726 259.646 165.502 260.336 167.332 261.048" stroke="black" stroke-width="5" stroke-linecap="round"/>
<path d="M166.157 290.495C166.237 290.495 168.153 290.483 171.272 290.356C172.516 290.242 173.071 290.026 174.25 289.144C175.428 288.263 177.213 286.723 179.47 284.67" stroke="black" stroke-width="5" stroke-linecap="round"/>
<path d="M319.622 277.69C318.948 277.713 318.325 277.719 317.826 277.726C317.512 277.73 318.376 277.705 319.622 277.69Z" fill="black"/>
<path d="M331.745 268.656C329.052 269.936 322.495 273.228 317.781 273.9C311.701 274.766 305.228 271.81 293.45 267.165C287.838 264.951 282.249 264.821 276.81 265.017C270.816 265.233 263.37 268.917 253.715 274.114C242.054 280.392 237.189 284.535 238.954 283.738C240.239 283.159 244.422 280.831 250.226 277.467C252.966 275.879 257.228 274.196 263.5 272.302C267.139 271.203 272.609 271.273 280.273 271.33C286.438 271.377 292.082 273.181 298.404 276.06C310.723 281.671 313.755 283.555 320.888 283.415C325.609 283.322 328.407 281.099 329.198 280.37C330.858 278.839 329.133 275.475 328.805 273.476C328.69 272.771 327.963 272.91 327.554 273.307C326.632 274.203 326.077 275.681 324.807 276.647C323.435 277.691 319.724 277.7 317.826 277.726C317.097 277.735 322.72 277.59 324.731 277.764C326.742 277.938 326.473 278.397 324.841 278.712C316.65 280.297 312.858 278.143 307.373 276.316C303.802 275.126 301.172 273.178 298.063 271.927C292.747 269.787 286.961 268.915 281.386 268.527C273.637 268.44 267.57 268.804 264.795 269.467C263.554 269.8 262.65 270.125 261.412 270.634" stroke="black" stroke-width="5" stroke-linecap="round"/>
<path d="M240.035 302.439V375.098" stroke="black" stroke-width="5" stroke-linecap="round"/>
<path d="M222.966 334.954H258.901" stroke="black" stroke-width="5" stroke-linecap="round"/>
<path d="M226.273 319.79C226.88 320.444 230.133 323.119 234.518 327.485C237.125 330.901 240.414 335.201 244.698 341.202C247.111 344.878 250.01 349.832 253.119 355.178" stroke="black" stroke-width="5" stroke-linecap="round"/>
<path d="M224.334 352.503C226.601 349.727 233.731 342.322 240.309 336.146C244.362 331.958 249.864 325.631 253.011 322.02C256.158 318.409 256.782 317.706 257.425 316.982" stroke="black" stroke-width="5" stroke-linecap="round"/>
<path d="M78.5906 342.697C78.6763 344.036 79.693 349.609 82.7748 356.815C84.4245 360.673 92.5307 366.297 97.9997 369.619C101.023 370.383 104.425 370.917 107.426 371.261C108.96 371.377 110.519 371.377 112.125 371.377" stroke="black" stroke-width="2" stroke-linecap="round"/>
<path d="M67.3781 386.651C69.2998 388.377 75.9964 393.666 89.3802 399.601C93.161 400.978 96.2923 401.474 100.609 401.822C102.795 401.941 104.972 401.941 108.179 401.599" stroke="black" stroke-width="2" stroke-linecap="round"/>
<path d="M134.692 349.607C134.608 350.271 134.919 353.251 136.845 357.064C138.295 359.936 141.004 361.899 147.658 365.673C149.376 366.541 150.508 366.975 151.455 367.276C152.402 367.577 153.131 367.733 153.882 367.893" stroke="black" stroke-width="2" stroke-linecap="round"/>
<path d="M170.684 352.434C174.686 352.479 184.424 353.666 186.799 355.646C188.499 357.062 188.782 359.942 188.325 369.747C183.611 380.118 180.221 383.723 176.188 387.554C174.621 389.038 174.029 389.591 173.418 390.161" stroke="black" stroke-width="2" stroke-linecap="round"/>
<path d="M179 193.845C180.115 193.755 188.25 189.824 200.044 184.041C203.806 182.196 206.614 183.201 208.91 184.024C209.457 184.273 209.958 184.536 211.199 185.52C212.44 186.503 214.406 188.2 216.918 190.62" stroke="black" stroke-width="2" stroke-linecap="round"/>
<path d="M261.587 174.476C261.587 178.725 261.727 188.54 262.78 192.386C264.244 197.728 267.368 200.528 270.131 202.718C277.562 206.533 286.149 209.536 290.064 210.192C291.691 210.424 292.588 210.454 293.513 210.485" stroke="black" stroke-width="2" stroke-linecap="round"/>
<path d="M252.722 229.666C253.868 231.055 259.846 236.383 263.91 238.524C268.914 239.016 277.339 238.702 282.876 238.041C284.565 237.716 286.714 237.142 289.365 236.33" stroke="black" stroke-width="2" stroke-linecap="round"/>
<path d="M283.158 346.884V374.04" stroke="black" stroke-width="2" stroke-linecap="round"/>
<path d="M270.156 361.964H294.019" stroke="black" stroke-width="2" stroke-linecap="round"/>
<path d="M257.064 80.9742V107.529" stroke="black" stroke-width="2" stroke-linecap="round"/>
<path d="M245.86 95.3578H268.022" stroke="black" stroke-width="2" stroke-linecap="round"/>
<path d="M97.6948 126.808V158.071" stroke="black" stroke-width="2" stroke-linecap="round"/>
<path d="M85.9709 141.17H110.66" stroke="black" stroke-width="2" stroke-linecap="round"/>
<path d="M89.2529 131.959C89.8885 132.41 91.9369 134.181 97.2171 140.871C101.31 145.174 104.974 149.27 107.268 152.35C108.178 153.556 108.573 154.036 108.979 154.53" stroke="black" stroke-width="2" stroke-linecap="round"/>
<path d="M87.52 152.963C87.52 152.926 87.8921 152.382 89.9799 149.811C94.744 144.213 100.619 137.784 105.079 133.198C106.804 131.381 107.436 130.601 109.173 129.058" stroke="black" stroke-width="2" stroke-linecap="round"/>
<path d="M248.146 83.6526C248.146 83.692 248.679 84.5483 251.157 87.6772C253.101 89.9703 256.441 93.6951 259.48 96.7027C262.518 99.7103 265.154 101.888 268.555 104.672" stroke="black" stroke-width="2" stroke-linecap="round"/>
<path d="M248.153 105.38C248.153 105.344 248.52 104.781 250.939 102.161C256.718 96.4959 261.072 92.1517 262.76 90.2988C263.932 89.0914 265.746 87.342 267.932 85.3616" stroke="black" stroke-width="2" stroke-linecap="round"/>
<path d="M273.739 349.891C273.739 349.93 274.225 350.627 277.379 354.227C284.884 362.3 290.566 368.262 291.889 369.6C292.512 370.282 293.039 370.971 293.582 371.68" stroke="black" stroke-width="2" stroke-linecap="round"/>
<path d="M272.352 372.859C272.957 371.869 279.544 364.925 285.001 359.829C289.137 355.322 292.715 351.59 294.433 350.028C295.217 349.252 295.82 348.51 296.442 347.746" stroke="black" stroke-width="2" stroke-linecap="round"/>
<path d="M172.155 188.925C170.57 188.91 165.69 188.661 163.053 187.952C159.357 186.959 155.074 182.71 151.335 180.101C146.593 176.793 140.568 177.746 136.715 178.122C130.756 178.704 121.074 184.293 114.048 185.057C110.438 185.449 105.518 181.918 102.253 178.939C101.362 178.125 101.776 176.739 102.237 175.727C102.843 174.398 107.711 173.624 117.166 172.285C123.037 171.453 131.213 171.386 137.468 170.76C153.604 169.147 157.833 164.673 159.961 162.034C160.717 161.097 160.542 159.559 160.396 158.074C160.326 157.363 159.858 156.811 159.279 156.219C158.017 154.929 148.811 152.088 135.981 148.461C130.948 147.039 129.672 146.249 128.202 145.062C125.375 142.779 125.686 138.242 125.759 134.249C125.887 127.356 138.952 123.006 145.188 120.824C146.562 120.343 147.829 120.258 151.932 120.156C156.034 120.054 162.972 120.068 171.72 120.262C180.468 120.456 190.816 120.829 198.912 120.195C207.008 119.56 212.54 117.906 217.477 117.029C226.497 115.425 231.706 116.255 236.052 117.843C245.939 121.457 253.04 124.502 255.279 124.961C258.815 125.687 263.028 126.784 267.991 127.091C274.14 127.473 279.836 126.761 284.556 125.928C289.777 124.481 293.261 123.25 296.552 121.085C299.162 119.252 303.679 115.925 308.332 112.498" stroke="black" stroke-width="5" stroke-linecap="round"/>
<path d="M180.563 178.876C176.912 178.835 165.92 178.193 158.775 175.366C157.474 174.851 157.102 174.351 156.835 173.846C156.567 173.342 156.487 172.696 157.02 172.077C159.614 169.063 167.478 169.119 173.493 167.306C176.83 166.3 178.245 163.421 178.431 161.886C178.841 158.507 176.097 156.375 173.724 154.638C167.739 150.257 159.587 149.184 155.847 148.823C153.195 148.567 151.002 147.707 149.348 146.729C147.127 145.415 146.32 143.12 145.934 141.69C145.439 139.855 145.992 137.972 147.212 136.542C149.373 134.009 155.601 134.162 168.263 133.281C177.604 132.63 192.894 132.038 201.457 131.562C211.411 131.009 214.292 130.114 217.761 129.068C222.176 127.735 228.414 127.446 234.476 127.497C238.231 127.529 242.831 129.229 251.898 130.86C265.479 133.303 274.961 131.994 276.977 131.62C280.616 130.944 283.921 130.149 286.799 128.753C288.018 128.042 290.36 126.624 293.686 124.476C295.262 123.385 296.611 122.291 299.049 120.082" stroke="black" stroke-width="5" stroke-linecap="round"/>
<path d="M119.764 177.522C116.408 177.525 113.244 177.526 110.81 177.527C111.076 177.679 111.446 177.899 111.694 178.125C112.144 178.534 112.329 179.046 112.178 179.47C111.845 180.399 110.452 180.546 109.726 180.821C109.429 180.933 109.84 181.646 110.425 181.938C113.091 183.269 116.332 181.547 119.339 180.054C119.73 179.86 120.112 179.662 120.486 179.461C119.126 179.541 118.629 179.211 119.622 178.241C121.172 176.726 123.267 175.864 127.858 174.415C128.867 173.57 129.772 172.752 130.585 171.998C126.968 173.099 123.509 173.545 119.16 174.723C117.699 175.119 116.781 175.943 116.452 176.023C115.572 176.237 117.081 175.439 119.787 174.282C117.098 174.671 115.679 174.448 116.577 173.421C117.07 172.858 125.362 168.449 131.248 169.649C131.487 169.698 131.727 169.784 131.888 169.917C132.768 169.662 133.641 169.427 134.492 169.219C138.67 168.197 144.036 167.324 149.969 166.915C160.119 166.216 167.596 160.737 175.22 161.185C176.597 161.265 176.362 162.424 175.974 163.055C174.254 165.844 165.855 166.084 154.76 167.449C142.762 168.924 135.644 172.025 132.618 172.949C130.781 173.51 129.211 173.988 127.858 174.415C125.852 176.094 123.432 177.876 120.486 179.461C120.112 179.662 119.73 179.86 119.339 180.054C116.332 181.547 113.091 183.269 110.425 181.938C109.84 181.646 109.429 180.933 109.726 180.821C110.452 180.546 111.845 180.399 112.178 179.47C112.329 179.046 112.144 178.534 111.694 178.125C111.446 177.899 111.076 177.679 110.81 177.527C110.593 177.404 110.446 177.326 110.493 177.33C110.993 177.365 123.325 177.518 119.764 177.522Z" fill="black"/>
<path d="M106.127 177.528C106.275 177.528 112.581 177.528 119.764 177.522C123.325 177.518 110.993 177.365 110.493 177.33C110.389 177.322 111.244 177.715 111.694 178.125C112.144 178.534 112.329 179.046 112.178 179.47C111.845 180.399 110.452 180.546 109.726 180.821C109.429 180.933 109.84 181.646 110.425 181.938C113.091 183.269 116.332 181.547 119.339 180.054C125.072 177.208 128.934 173.547 131.646 171.007C132.533 170.176 131.884 169.779 131.248 169.649C125.362 168.449 117.07 172.858 116.577 173.421C114.499 175.796 124.825 173.872 134.597 170.011C136.61 169.215 137.213 169.18 136.316 169.65C130.233 172.836 125.703 172.95 119.16 174.723C117.699 175.119 116.781 175.943 116.452 176.023C114.373 176.528 125.619 171.388 134.492 169.219C138.67 168.197 144.036 167.324 149.969 166.915C160.119 166.216 167.596 160.737 175.22 161.185C176.597 161.265 176.362 162.424 175.974 163.055C174.254 165.844 165.855 166.084 154.76 167.449C142.762 168.924 135.644 172.025 132.618 172.949C124.55 175.413 121.629 176.28 119.622 178.241C115.828 181.947 133.782 176.312 138.541 174.146C142.206 172.478 146.354 173.991 151.936 176.959C161.07 181.816 167.592 185.157 174.032 185.791C174.964 185.883 175.275 184.937 175.319 184.343C175.363 183.75 175.096 183.173 173.867 182.579C166.463 179.005 157.969 178.863 152.727 176.525C151.269 175.874 150.577 174.694 150.064 173.494C149.82 172.924 149.942 172.319 151.175 171.63C152.408 170.942 154.833 170.158 155.788 169.781C155.32 170.195 154.856 173.353 154.761 175.726C154.665 176.328 154.475 175.707 154.279 174.526" stroke="black" stroke-width="5" stroke-linecap="round"/>
<path d="M162.895 153.993C162.762 153.698 162.629 153.445 162.499 153.25C159.748 149.137 171.58 155.523 172.862 156.495C173.596 157.051 174.222 158.059 174.206 158.683C174.19 159.307 173.442 159.601 172.629 159.667C169.536 159.921 167.108 156.904 164.506 155.03C164.006 154.67 163.467 154.324 162.895 153.993C155.97 149.978 144.3 147.971 140.776 145.773C139.692 145.097 138.592 144.653 137.524 144.305C135.748 144.803 134.038 144.98 133.175 144.258C132.997 144.109 132.847 143.922 132.724 143.71C131.808 143.301 131.01 142.513 130.276 141.629C129.422 140.602 129.615 139.174 129.735 138.026C129.626 137.618 129.53 137.211 129.443 136.815C128.977 134.71 129.603 133.073 130.282 132.121C132.518 128.988 140.935 125.871 148.961 123.892C154.447 122.539 158.481 123.865 158.997 124.205C161.42 125.8 152.796 126.5 145.428 131.456C144.25 132.247 143.282 133.142 142.481 134.078C145.605 132.251 147.821 131.228 146.042 132.979C144.601 134.395 142.028 136.746 142.517 139.516C142.769 140.949 143.772 143.313 144.37 145.593C144.52 146.164 144.299 145.544 143.774 145.204C142.733 144.528 141.436 143.95 140.132 143.387C139.266 143.741 138.407 144.056 137.551 144.297C137.542 144.3 137.533 144.302 137.524 144.305C138.592 144.653 139.692 145.097 140.776 145.773C144.3 147.971 155.97 149.978 162.895 153.993Z" fill="black"/>
<path d="M164.68 161.561C164.68 159.797 163.522 154.779 162.499 153.25C159.748 149.137 171.58 155.523 172.862 156.495C173.596 157.051 174.222 158.059 174.206 158.683C174.19 159.307 173.442 159.601 172.629 159.667C169.536 159.921 167.108 156.904 164.506 155.03C157.954 150.308 144.592 148.153 140.776 145.773C137.842 143.943 134.789 143.817 132.579 142.667C130.712 141.695 129.939 139.06 129.443 136.815C128.977 134.71 129.603 133.073 130.282 132.121C132.518 128.988 140.935 125.871 148.961 123.892C154.447 122.539 158.481 123.865 158.997 124.205C161.42 125.8 152.796 126.5 145.428 131.456C139.802 135.239 138.958 141.37 138.208 143.195C137.636 144.584 135.317 144.222 133.62 143.975C132.313 143.785 131.24 142.79 130.276 141.629C129.404 140.58 129.624 139.113 129.743 137.954C130.008 135.366 132.918 133.469 135.684 132.012C142.077 128.646 151.16 126.058 153.337 125.652C156.066 125.144 141.218 131.359 135.215 136.446C134.4 137.136 134.341 138.334 134.349 139.098C134.356 139.862 134.708 140.387 135.152 140.771C137.119 142.472 141.217 143.544 143.774 145.204C144.299 145.544 144.52 146.164 144.37 145.593C143.772 143.313 142.769 140.949 142.517 139.516C142.028 136.746 144.601 134.395 146.042 132.979C150.139 128.949 133.052 139.618 132.483 140.965C132.094 141.885 132.307 143.532 133.175 144.258C134.043 144.983 135.766 144.801 137.551 144.297C139.337 143.793 141.133 142.973 142.983 142.129" stroke="black" stroke-width="5" stroke-linecap="round"/>
<path d="M148.3 175.861C148.951 175.861 149.603 175.861 150.311 175.861C151.02 175.861 151.766 175.861 150.95 175.261C150.133 174.662 147.732 173.463 143.953 172.023" stroke="black" stroke-width="5" stroke-linecap="round"/>
<path d="M161.722 128.2C160.547 128.61 159.479 129.001 158.508 129.366C158.153 128.349 157.769 127.378 157.288 126.585C157.127 126.581 157.129 126.563 157.259 126.536C157.058 126.211 156.84 125.917 156.601 125.663C156.042 125.071 155.444 124.697 158.327 124.51C160.479 124.37 166.346 124.851 168.552 124.665C166.693 124.276 165.223 123.978 165.059 123.945C164.419 123.818 168.691 123.812 169.241 124.193C169.629 124.461 169.302 124.601 168.552 124.665C169.714 124.908 171.028 125.186 172.269 125.456C178.766 124.911 186.257 124.281 191.843 123.878C201.083 123.213 204.989 123.173 202.846 123.711C200.704 124.249 192.767 125.455 186.049 126.05C182.737 126.344 179.738 126.522 177.037 126.658C177.017 126.675 176.935 126.68 176.78 126.671C169.824 127.019 164.879 127.1 161.722 128.2Z" fill="black"/>
<path d="M144.49 136.146C145.087 135.253 147.364 133.035 152.321 131.638C154.225 131.102 157.177 129.784 161.722 128.2C166.135 126.663 174.039 127.115 186.049 126.05C192.767 125.455 200.704 124.249 202.846 123.711C204.989 123.173 201.083 123.213 191.843 123.878C182.602 124.544 168.145 125.834 161.604 126.33C155.063 126.826 156.876 126.488 159.895 126.265C167.072 125.737 174.064 126.358 175.929 126.587C181.283 127.242 165.617 124.056 165.059 123.945C164.419 123.818 168.691 123.812 169.241 124.193C170.768 125.249 161.211 124.323 158.327 124.51C155.444 124.697 156.042 125.071 156.601 125.663C157.801 126.935 158.455 129.222 159.17 131.342C159.454 132.185 160.192 132.281 160.784 132.321C165.16 132.612 170.986 129.282 178.929 128.7C185.98 128.184 199.177 127.436 206.676 126.84C217.938 125.945 220.934 124.049 224.494 123.714C228.652 123.323 237.161 124.667 247.003 126.089C259.569 127.729 269.476 129.793 270.917 130.202C271.594 130.358 272.163 130.41 272.749 130.463" stroke="black" stroke-width="5" stroke-linecap="round"/>
<path d="M203.398 122.513C203.358 122.513 206.995 122.488 214.615 122.085C222.796 121.652 228.76 120.211 231.791 120.326C233.843 120.707 237.073 122.134 241.023 123.978C242.534 124.66 243.046 124.826 243.574 124.996" stroke="black" stroke-width="5" stroke-linecap="round"/>
<circle cx="210" cy="79" r="3.5" fill="black" stroke="black"/>
<circle cx="172" cy="102" r="3.5" fill="black" stroke="black"/>
<circle cx="210" cy="151" r="3.5" fill="black" stroke="black"/>
<circle cx="300" cy="142" r="3.5" fill="black" stroke="black"/>
<circle cx="308" cy="89" r="3.5" fill="black" stroke="black"/>
<circle cx="211" cy="263" r="3.5" fill="black" stroke="black"/>
<circle cx="118" cy="244" r="3.5" fill="black" stroke="black"/>
<circle cx="82" cy="182" r="3.5" fill="black" stroke="black"/>
<circle cx="90" cy="298" r="3.5" fill="black" stroke="black"/>
<circle cx="82" cy="445" r="3.5" fill="black" stroke="black"/>
<circle cx="136" cy="425" r="3.5" fill="black" stroke="black"/>
<circle cx="190" cy="445" r="3.5" fill="black" stroke="black"/>
<circle cx="218" cy="406" r="3.5" fill="black" stroke="black"/>
<circle cx="193" cy="315" r="3.5" fill="black" stroke="black"/>
<circle cx="288" cy="311" r="3.5" fill="black" stroke="black"/>
<circle cx="308" cy="391" r="3.5" fill="black" stroke="black"/>
<circle cx="264" cy="429" r="3.5" fill="black" stroke="black"/>
<circle cx="306" cy="437" r="3.5" fill="black" stroke="black"/>
</svg>
